<mxfile host="drawio-plugin" modified="2024-02-05T07:23:17.053Z" agent="5.0 (X11; Linux x86_64) AppleWebKit/537.36 (KHTML, like Gecko) Chrome/111.0.0.0 Safari/537.36" etag="xaVCAPCK9xZ-voBVWAEN" version="20.5.3" type="embed"><diagram id="YCOXY6uNKsvWjbUwL4Hw" name="Page-1"><mxGraphModel dx="7758" dy="3335" grid="1" gridSize="10" guides="1" tooltips="1" connect="1" arrows="1" fold="1" page="1" pageScale="1" pageWidth="827" pageHeight="1169" math="0" shadow="0"><root><mxCell id="0"/><mxCell id="1" parent="0"/><mxCell id="2" value="" style="ellipse;html=1;shape=startState;fillColor=#000000;strokeColor=#E6E6E6;" parent="1" vertex="1"><mxGeometry x="-398" y="-1150" width="30" height="30" as="geometry"/></mxCell><mxCell id="3" value="" style="edgeStyle=orthogonalEdgeStyle;html=1;verticalAlign=bottom;endArrow=classic;endSize=8;strokeColor=#000000;rounded=0;entryX=0.5;entryY=0;entryDx=0;entryDy=0;endFill=1;" parent="1" target="4" edge="1"><mxGeometry relative="1" as="geometry"><mxPoint x="-418" y="-1090" as="targetPoint"/><mxPoint x="-383" y="-1120" as="sourcePoint"/></mxGeometry></mxCell><object label="Ingredient" placeholders="1" id="4"><mxCell style="swimlane;fontStyle=0;childLayout=stackLayout;horizontal=1;startSize=26;fillColor=#d5e8d4;horizontalStack=0;resizeParent=1;resizeParentMax=0;resizeLast=0;collapsible=1;marginBottom=0;strokeColor=#82b366;" parent="1" vertex="1"><mxGeometry x="-513" y="-1090" width="260" height="208" as="geometry"><mxRectangle x="262" y="20" width="90" height="30" as="alternateBounds"/></mxGeometry></mxCell></object><mxCell id="5" value="request : Psr\..\ServerRequestInterface" style="text;strokeColor=none;fillColor=none;align=left;verticalAlign=top;spacingLeft=4;spacingRight=4;overflow=hidden;rotatable=0;points=[[0,0.5],[1,0.5]];portConstraint=eastwest;" parent="4" vertex="1"><mxGeometry y="26" width="260" height="26" as="geometry"/></mxCell><mxCell id="6" value="writer : WriterInterface" style="text;strokeColor=none;fillColor=none;align=left;verticalAlign=top;spacingLeft=4;spacingRight=4;overflow=hidden;rotatable=0;points=[[0,0.5],[1,0.5]];portConstraint=eastwest;" parent="4" vertex="1"><mxGeometry y="52" width="260" height="26" as="geometry"/></mxCell><mxCell id="7" value="objectClass : string" style="text;strokeColor=none;fillColor=none;align=left;verticalAlign=top;spacingLeft=4;spacingRight=4;overflow=hidden;rotatable=0;points=[[0,0.5],[1,0.5]];portConstraint=eastwest;" parent="4" vertex="1"><mxGeometry y="78" width="260" height="26" as="geometry"/></mxCell><mxCell id="8" value="id : string" style="text;strokeColor=none;fillColor=none;align=left;verticalAlign=top;spacingLeft=4;spacingRight=4;overflow=hidden;rotatable=0;points=[[0,0.5],[1,0.5]];portConstraint=eastwest;" parent="4" vertex="1"><mxGeometry y="104" width="260" height="26" as="geometry"/></mxCell><mxCell id="9" value="formClass : string" style="text;strokeColor=none;fillColor=none;align=left;verticalAlign=top;spacingLeft=4;spacingRight=4;overflow=hidden;rotatable=0;points=[[0,0.5],[1,0.5]];portConstraint=eastwest;" parent="4" vertex="1"><mxGeometry y="130" width="260" height="26" as="geometry"/></mxCell><mxCell id="10" value="formOptions : array" style="text;strokeColor=none;fillColor=none;align=left;verticalAlign=top;spacingLeft=4;spacingRight=4;overflow=hidden;rotatable=0;points=[[0,0.5],[1,0.5]];portConstraint=eastwest;" parent="4" vertex="1"><mxGeometry y="156" width="260" height="26" as="geometry"/></mxCell><mxCell id="11" value="template : string" style="text;strokeColor=none;fillColor=none;align=left;verticalAlign=top;spacingLeft=4;spacingRight=4;overflow=hidden;rotatable=0;points=[[0,0.5],[1,0.5]];portConstraint=eastwest;" parent="4" vertex="1"><mxGeometry y="182" width="260" height="26" as="geometry"/></mxCell><mxCell id="12" value="&lt;div style=&quot;color: rgb(8, 8, 8);&quot;&gt;&lt;pre style=&quot;font-family: &amp;quot;JetBrains Mono&amp;quot;, monospace;&quot;&gt;&lt;pre style=&quot;font-family: &amp;quot;JetBrains Mono&amp;quot;, monospace;&quot;&gt;&lt;div style=&quot;&quot;&gt;&lt;pre style=&quot;font-family: &amp;quot;JetBrains Mono&amp;quot;, monospace;&quot;&gt;&lt;span style=&quot;color: rgb(0, 0, 0);&quot;&gt;CreateObject&lt;/span&gt;&lt;/pre&gt;&lt;/div&gt;&lt;/pre&gt;&lt;/pre&gt;&lt;/div&gt;" style="rounded=1;whiteSpace=wrap;html=1;absoluteArcSize=1;arcSize=14;strokeWidth=2;fillColor=#dae8fc;strokeColor=#6c8ebf;" parent="1" vertex="1"><mxGeometry x="-478" y="-830" width="190" height="50" as="geometry"/></mxCell><mxCell id="13" value="" style="edgeStyle=orthogonalEdgeStyle;html=1;verticalAlign=bottom;endArrow=classic;endSize=8;strokeColor=#000000;rounded=0;exitX=0.501;exitY=0.988;exitDx=0;exitDy=0;exitPerimeter=0;entryX=0.5;entryY=0;entryDx=0;entryDy=0;endFill=1;" parent="1" source="11" target="12" edge="1"><mxGeometry relative="1" as="geometry"><mxPoint x="-393" y="-750" as="targetPoint"/><mxPoint x="-383" y="-940" as="sourcePoint"/><Array as="points"><mxPoint x="-383" y="-881"/><mxPoint x="-383" y="-881"/></Array></mxGeometry></mxCell><mxCell id="14" value="" style="edgeStyle=orthogonalEdgeStyle;rounded=0;orthogonalLoop=1;jettySize=auto;html=1;strokeColor=#000000;exitX=0.5;exitY=1;exitDx=0;exitDy=0;" parent="1" edge="1"><mxGeometry relative="1" as="geometry"><mxPoint x="-382.5" y="-780.0000000000005" as="sourcePoint"/><mxPoint x="-382.5" y="-740.0000000000005" as="targetPoint"/></mxGeometry></mxCell><mxCell id="15" value="" style="edgeStyle=orthogonalEdgeStyle;rounded=0;orthogonalLoop=1;jettySize=auto;html=1;strokeColor=#000000;exitX=0.5;exitY=1;exitDx=0;exitDy=0;" parent="1" edge="1"><mxGeometry relative="1" as="geometry"><mxPoint x="-382.5" y="-690.0000000000005" as="sourcePoint"/><mxPoint x="-382.5" y="-650.0000000000005" as="targetPoint"/></mxGeometry></mxCell><mxCell id="16" value="" style="edgeStyle=orthogonalEdgeStyle;rounded=0;orthogonalLoop=1;jettySize=auto;html=1;strokeColor=#000000;exitX=0.5;exitY=1;exitDx=0;exitDy=0;" parent="1" edge="1"><mxGeometry relative="1" as="geometry"><mxPoint x="-383" y="-510.00000000000045" as="sourcePoint"/><mxPoint x="-383" y="-470.00000000000045" as="targetPoint"/></mxGeometry></mxCell><mxCell id="17" value="" style="edgeStyle=orthogonalEdgeStyle;rounded=0;orthogonalLoop=1;jettySize=auto;html=1;strokeColor=#000000;exitX=0.5;exitY=1;exitDx=0;exitDy=0;" parent="1" edge="1"><mxGeometry relative="1" as="geometry"><mxPoint x="-383.5" y="-330.00000000000045" as="sourcePoint"/><mxPoint x="-383.5" y="-290.00000000000045" as="targetPoint"/></mxGeometry></mxCell><mxCell id="18" value="" style="edgeStyle=orthogonalEdgeStyle;rounded=0;orthogonalLoop=1;jettySize=auto;html=1;strokeColor=#000000;endArrow=classic;endFill=1;" parent="1" target="19" edge="1"><mxGeometry relative="1" as="geometry"><mxPoint x="-381.9411764705883" y="-240.00000000000045" as="sourcePoint"/></mxGeometry></mxCell><mxCell id="19" value="" style="ellipse;html=1;shape=endState;fillColor=#000000;strokeColor=#000000;" parent="1" vertex="1"><mxGeometry x="-397" y="-211" width="30" height="30" as="geometry"/></mxCell><mxCell id="20" value="10" style="text;html=1;strokeColor=none;fillColor=none;align=center;verticalAlign=middle;whiteSpace=wrap;rounded=0;fontStyle=2" parent="1" vertex="1"><mxGeometry x="-308" y="-800" width="20" height="20" as="geometry"/></mxCell><mxCell id="21" value="&lt;div style=&quot;color: rgb(8, 8, 8);&quot;&gt;&lt;pre style=&quot;font-family: &amp;quot;JetBrains Mono&amp;quot;, monospace;&quot;&gt;&lt;pre style=&quot;font-family: &amp;quot;JetBrains Mono&amp;quot;, monospace;&quot;&gt;&lt;pre style=&quot;font-family: &amp;quot;JetBrains Mono&amp;quot;, monospace;&quot;&gt;&lt;pre style=&quot;font-family: &amp;quot;JetBrains Mono&amp;quot;, monospace;&quot;&gt;&lt;pre style=&quot;font-family: &amp;quot;JetBrains Mono&amp;quot;, monospace;&quot;&gt;&lt;div style=&quot;&quot;&gt;&lt;pre style=&quot;font-family: &amp;quot;JetBrains Mono&amp;quot;, monospace;&quot;&gt;&lt;span style=&quot;color: rgb(0, 0, 0);&quot;&gt;RenderError&lt;/span&gt;&lt;/pre&gt;&lt;/div&gt;&lt;/pre&gt;&lt;/pre&gt;&lt;/pre&gt;&lt;/pre&gt;&lt;/pre&gt;&lt;/div&gt;" style="rounded=1;whiteSpace=wrap;html=1;absoluteArcSize=1;arcSize=14;strokeWidth=2;fillColor=#f8cecc;strokeColor=#b85450;" parent="1" vertex="1"><mxGeometry x="-760" y="-330" width="190" height="50" as="geometry"/></mxCell><mxCell id="22" value="" style="edgeStyle=orthogonalEdgeStyle;rounded=1;orthogonalLoop=1;jettySize=auto;html=1;strokeColor=#000000;endArrow=classic;endFill=1;entryX=0;entryY=0.5;entryDx=0;entryDy=0;exitX=0.5;exitY=1;exitDx=0;exitDy=0;" parent="1" source="21" target="19" edge="1"><mxGeometry relative="1" as="geometry"><mxPoint x="-620" y="-320" as="sourcePoint"/><mxPoint x="-620" y="-280" as="targetPoint"/></mxGeometry></mxCell><mxCell id="23" value="On Error" style="swimlane;whiteSpace=wrap;html=1;strokeColor=#b85450;startSize=23;fillColor=#f8cecc;" parent="1" vertex="1"><mxGeometry x="-780" y="-370" width="230" height="110" as="geometry"/></mxCell><mxCell id="24" value="&lt;div style=&quot;background-color:#ffffff;color:#080808&quot;&gt;&lt;pre style=&quot;font-family:'JetBrains Mono',monospace;font-size:15,0pt;&quot;&gt;&lt;pre style=&quot;font-family:'JetBrains Mono',monospace;font-size:15,0pt;&quot;&gt;&lt;span style=&quot;color: rgba(0, 0, 0, 0); font-family: monospace; font-size: 0px; text-align: start; background-color: rgb(248, 249, 250);&quot;&gt;%3CmxGraphModel%3E%3Croot%3E%3CmxCell%20id%3D%220%22%2F%3E%3CmxCell%20id%3D%221%22%20parent%3D%220%22%2F%3E%3CmxCell%20id%3D%222%22%20value%3D%22%26lt%3Bdiv%20style%3D%26quot%3Bbackground-color%3A%23ffffff%3Bcolor%3A%23080808%26quot%3B%26gt%3B%26lt%3Bpre%20style%3D%26quot%3Bfont-family%3A'JetBrains%20Mono'%2Cmonospace%3Bfont-size%3A15%2C0pt%3B%26quot%3B%26gt%3B%26lt%3Bdiv%26gt%3B%26lt%3Bpre%20style%3D%26quot%3Bfont-family%3A'JetBrains%20Mono'%2Cmonospace%3Bfont-size%3A15%2C0pt%3B%26quot%3B%26gt%3B%26lt%3Bspan%20style%3D%26quot%3Bcolor%3A%23000000%3B%26quot%3B%26gt%3BGetJob%26lt%3B%2Fspan%26gt%3B%26lt%3B%2Fpre%26gt%3B%26lt%3B%2Fdiv%26gt%3B%26lt%3B%2Fpre%26gt%3B%26lt%3B%2Fdiv%26gt%3B%22%20style%3D%22rounded%3D1%3BwhiteSpace%3Dwrap%3Bhtml%3D1%3BabsoluteArcSize%3D1%3BarcSize%3D14%3BstrokeWidth%3D2%3B%22%20vertex%3D%221%22%20parent%3D%221%22%3E%3CmxGeometry%20x%3D%22340%22%20y%3D%22640%22%20width%3D%22190%22%20height%3D%2250%22%20as%3D%22geometry%22%2F%3E%3C%2FmxCell%3E%3C%2Froot%3E%3C%2FmxGraphModel%3E&lt;/span&gt;&lt;br&gt;&lt;/pre&gt;&lt;/pre&gt;&lt;/div&gt;" style="rounded=1;whiteSpace=wrap;html=1;absoluteArcSize=1;arcSize=14;strokeWidth=2;" parent="1" vertex="1"><mxGeometry x="-795" y="-485" width="250" height="50" as="geometry"/></mxCell><mxCell id="25" value="&lt;div style=&quot;background-color:#ffffff;color:#080808&quot;&gt;&lt;pre style=&quot;font-family:'JetBrains Mono',monospace;font-size:15,0pt;&quot;&gt;&lt;pre style=&quot;font-family:'JetBrains Mono',monospace;font-size:15,0pt;&quot;&gt;&lt;pre style=&quot;font-family:'JetBrains Mono',monospace;font-size:15,0pt;&quot;&gt;&lt;pre style=&quot;font-family:'JetBrains Mono',monospace;font-size:15,0pt;&quot;&gt;&lt;div&gt;&lt;pre style=&quot;font-family:'JetBrains Mono',monospace;font-size:15,0pt;&quot;&gt;&lt;span style=&quot;color:#000000;&quot;&gt;NewProjectEndPointStepsInterface&lt;/span&gt;&lt;/pre&gt;&lt;/div&gt;&lt;/pre&gt;&lt;/pre&gt;&lt;/pre&gt;&lt;/pre&gt;&lt;/div&gt;" style="rounded=1;whiteSpace=wrap;html=1;absoluteArcSize=1;arcSize=14;strokeWidth=2;" parent="1" vertex="1"><mxGeometry x="-785" y="-475" width="250" height="50" as="geometry"/></mxCell><mxCell id="26" value="" style="endArrow=classic;html=1;dashed=1;strokeColor=#000000;entryX=0.5;entryY=0;entryDx=0;entryDy=0;rounded=1;dashPattern=1 4;" parent="1" target="27" edge="1"><mxGeometry width="50" height="50" relative="1" as="geometry"><mxPoint x="-385" y="-860.0000000000005" as="sourcePoint"/><mxPoint x="185" y="-510" as="targetPoint"/><Array as="points"><mxPoint x="-665" y="-860"/></Array></mxGeometry></mxCell><mxCell id="27" value="To extends, add step in" style="swimlane;whiteSpace=wrap;html=1;strokeColor=#6c8ebf;startSize=23;fillColor=#dae8fc;" parent="1" vertex="1"><mxGeometry x="-810" y="-530" width="290" height="120" as="geometry"/></mxCell><mxCell id="30" value="&lt;div style=&quot;color: rgb(8, 8, 8);&quot;&gt;&lt;pre style=&quot;font-family: &amp;quot;JetBrains Mono&amp;quot;, monospace;&quot;&gt;&lt;pre style=&quot;font-family: &amp;quot;JetBrains Mono&amp;quot;, monospace;&quot;&gt;&lt;pre style=&quot;font-family: &amp;quot;JetBrains Mono&amp;quot;, monospace;&quot;&gt;&lt;pre style=&quot;font-family: &amp;quot;JetBrains Mono&amp;quot;, monospace;&quot;&gt;&lt;pre style=&quot;font-family: &amp;quot;JetBrains Mono&amp;quot;, monospace;&quot;&gt;&lt;div style=&quot;&quot;&gt;&lt;pre style=&quot;font-family: &amp;quot;JetBrains Mono&amp;quot;, monospace;&quot;&gt;&lt;span style=&quot;color: rgb(0, 0, 0);&quot;&gt;&lt;i style=&quot;&quot;&gt;FormHandlingInterface&lt;/i&gt;&lt;/span&gt;&lt;/pre&gt;&lt;/div&gt;&lt;/pre&gt;&lt;/pre&gt;&lt;/pre&gt;&lt;/pre&gt;&lt;/pre&gt;&lt;/div&gt;" style="rounded=1;whiteSpace=wrap;html=1;absoluteArcSize=1;arcSize=14;strokeWidth=2;fillColor=#dae8fc;strokeColor=#6c8ebf;" parent="1" vertex="1"><mxGeometry x="-477.5" y="-740" width="190" height="50" as="geometry"/></mxCell><mxCell id="31" value="&lt;div style=&quot;color: rgb(8, 8, 8);&quot;&gt;&lt;pre style=&quot;font-family: &amp;quot;JetBrains Mono&amp;quot;, monospace;&quot;&gt;&lt;pre style=&quot;font-family: &amp;quot;JetBrains Mono&amp;quot;, monospace;&quot;&gt;&lt;pre style=&quot;font-family: &amp;quot;JetBrains Mono&amp;quot;, monospace;&quot;&gt;&lt;pre style=&quot;font-family: &amp;quot;JetBrains Mono&amp;quot;, monospace;&quot;&gt;&lt;div style=&quot;&quot;&gt;&lt;pre style=&quot;font-family: &amp;quot;JetBrains Mono&amp;quot;, monospace;&quot;&gt;&lt;span style=&quot;color: rgb(0, 0, 0);&quot;&gt;Symfony/../FormHandling&lt;/span&gt;&lt;/pre&gt;&lt;/div&gt;&lt;/pre&gt;&lt;/pre&gt;&lt;/pre&gt;&lt;/pre&gt;&lt;/div&gt;" style="rounded=1;whiteSpace=wrap;html=1;absoluteArcSize=1;arcSize=14;strokeWidth=2;strokeColor=#82b366;fillColor=#d5e8d4;" parent="1" vertex="1"><mxGeometry x="-257.5" y="-740" width="200" height="50" as="geometry"/></mxCell><mxCell id="32" value="&lt;div style=&quot;color: rgb(8, 8, 8);&quot;&gt;&lt;pre style=&quot;font-family: &amp;quot;JetBrains Mono&amp;quot;, monospace;&quot;&gt;&lt;pre style=&quot;font-family: &amp;quot;JetBrains Mono&amp;quot;, monospace;&quot;&gt;&lt;pre style=&quot;font-family: &amp;quot;JetBrains Mono&amp;quot;, monospace;&quot;&gt;&lt;pre style=&quot;font-family: &amp;quot;JetBrains Mono&amp;quot;, monospace;&quot;&gt;&lt;div style=&quot;&quot;&gt;&lt;pre style=&quot;font-family: &amp;quot;JetBrains Mono&amp;quot;, monospace;&quot;&gt;&lt;span style=&quot;color: rgb(0, 0, 0);&quot;&gt;Symfony/Form&lt;/span&gt;&lt;/pre&gt;&lt;/div&gt;&lt;/pre&gt;&lt;/pre&gt;&lt;/pre&gt;&lt;/pre&gt;&lt;/div&gt;" style="shape=process;whiteSpace=wrap;html=1;backgroundOutline=1;fillColor=#ffe6cc;strokeColor=#d79b00;" parent="1" vertex="1"><mxGeometry x="-26.5" y="-737.5" width="190" height="45" as="geometry"/></mxCell><mxCell id="33" value="20" style="text;html=1;strokeColor=none;fillColor=none;align=center;verticalAlign=middle;whiteSpace=wrap;rounded=0;fontStyle=2" parent="1" vertex="1"><mxGeometry x="-307.5" y="-710" width="20" height="20" as="geometry"/></mxCell><mxCell id="34" value="" style="edgeStyle=orthogonalEdgeStyle;rounded=0;orthogonalLoop=1;jettySize=auto;html=1;strokeColor=#000000;endArrow=classic;endFill=1;dashed=1;" parent="1" edge="1"><mxGeometry relative="1" as="geometry"><mxPoint x="-287.5" y="-715.1399999999999" as="sourcePoint"/><mxPoint x="-257.5" y="-715.1399999999999" as="targetPoint"/></mxGeometry></mxCell><mxCell id="35" value="" style="endArrow=classic;html=1;rounded=0;dashed=1;exitX=1;exitY=0.5;exitDx=0;exitDy=0;entryX=0;entryY=0.5;entryDx=0;entryDy=0;strokeColor=#666666;fillColor=#f5f5f5;" parent="1" edge="1"><mxGeometry width="50" height="50" relative="1" as="geometry"><mxPoint x="-57.500000000000455" y="-715.1399999999999" as="sourcePoint"/><mxPoint x="-26.5" y="-715.1399999999999" as="targetPoint"/></mxGeometry></mxCell><mxCell id="36" value="&lt;div style=&quot;color: rgb(8, 8, 8);&quot;&gt;&lt;pre style=&quot;font-family: &amp;quot;JetBrains Mono&amp;quot;, monospace;&quot;&gt;&lt;pre style=&quot;font-family: &amp;quot;JetBrains Mono&amp;quot;, monospace;&quot;&gt;&lt;pre style=&quot;font-family: &amp;quot;JetBrains Mono&amp;quot;, monospace;&quot;&gt;&lt;pre style=&quot;font-family: &amp;quot;JetBrains Mono&amp;quot;, monospace;&quot;&gt;&lt;pre style=&quot;font-family: &amp;quot;JetBrains Mono&amp;quot;, monospace;&quot;&gt;&lt;pre style=&quot;font-family: &amp;quot;JetBrains Mono&amp;quot;, monospace;&quot;&gt;&lt;div style=&quot;&quot;&gt;&lt;pre style=&quot;font-family: &amp;quot;JetBrains Mono&amp;quot;, monospace;&quot;&gt;&lt;span style=&quot;color: rgb(0, 0, 0);&quot;&gt;&lt;i style=&quot;&quot;&gt;FormProcessingInterface&lt;/i&gt;&lt;/span&gt;&lt;/pre&gt;&lt;/div&gt;&lt;/pre&gt;&lt;/pre&gt;&lt;/pre&gt;&lt;/pre&gt;&lt;/pre&gt;&lt;/pre&gt;&lt;/div&gt;" style="rounded=1;whiteSpace=wrap;html=1;absoluteArcSize=1;arcSize=14;strokeWidth=2;fillColor=#dae8fc;strokeColor=#6c8ebf;" parent="1" vertex="1"><mxGeometry x="-478" y="-650" width="190" height="50" as="geometry"/></mxCell><mxCell id="37" value="&lt;div style=&quot;color: rgb(8, 8, 8);&quot;&gt;&lt;pre style=&quot;font-family: &amp;quot;JetBrains Mono&amp;quot;, monospace;&quot;&gt;&lt;pre style=&quot;font-family: &amp;quot;JetBrains Mono&amp;quot;, monospace;&quot;&gt;&lt;pre style=&quot;font-family: &amp;quot;JetBrains Mono&amp;quot;, monospace;&quot;&gt;&lt;pre style=&quot;font-family: &amp;quot;JetBrains Mono&amp;quot;, monospace;&quot;&gt;&lt;div style=&quot;&quot;&gt;&lt;pre style=&quot;font-family: &amp;quot;JetBrains Mono&amp;quot;, monospace;&quot;&gt;&lt;span style=&quot;color: rgb(0, 0, 0);&quot;&gt;Symfony/../FormProcessing&lt;/span&gt;&lt;/pre&gt;&lt;/div&gt;&lt;/pre&gt;&lt;/pre&gt;&lt;/pre&gt;&lt;/pre&gt;&lt;/div&gt;" style="rounded=1;whiteSpace=wrap;html=1;absoluteArcSize=1;arcSize=14;strokeWidth=2;strokeColor=#82b366;fillColor=#d5e8d4;" parent="1" vertex="1"><mxGeometry x="-258" y="-650" width="200" height="50" as="geometry"/></mxCell><mxCell id="38" value="&lt;div style=&quot;color: rgb(8, 8, 8);&quot;&gt;&lt;pre style=&quot;font-family: &amp;quot;JetBrains Mono&amp;quot;, monospace;&quot;&gt;&lt;pre style=&quot;font-family: &amp;quot;JetBrains Mono&amp;quot;, monospace;&quot;&gt;&lt;pre style=&quot;font-family: &amp;quot;JetBrains Mono&amp;quot;, monospace;&quot;&gt;&lt;pre style=&quot;font-family: &amp;quot;JetBrains Mono&amp;quot;, monospace;&quot;&gt;&lt;div style=&quot;&quot;&gt;&lt;pre style=&quot;font-family: &amp;quot;JetBrains Mono&amp;quot;, monospace;&quot;&gt;&lt;span style=&quot;color: rgb(0, 0, 0);&quot;&gt;Symfony/Form&lt;/span&gt;&lt;/pre&gt;&lt;/div&gt;&lt;/pre&gt;&lt;/pre&gt;&lt;/pre&gt;&lt;/pre&gt;&lt;/div&gt;" style="shape=process;whiteSpace=wrap;html=1;backgroundOutline=1;fillColor=#ffe6cc;strokeColor=#d79b00;" parent="1" vertex="1"><mxGeometry x="-27" y="-647.5" width="190" height="45" as="geometry"/></mxCell><mxCell id="39" value="30" style="text;html=1;strokeColor=none;fillColor=none;align=center;verticalAlign=middle;whiteSpace=wrap;rounded=0;fontStyle=2" parent="1" vertex="1"><mxGeometry x="-308" y="-620" width="20" height="20" as="geometry"/></mxCell><mxCell id="40" value="" style="edgeStyle=orthogonalEdgeStyle;rounded=0;orthogonalLoop=1;jettySize=auto;html=1;strokeColor=#000000;endArrow=classic;endFill=1;dashed=1;" parent="1" edge="1"><mxGeometry relative="1" as="geometry"><mxPoint x="-288" y="-625.1399999999999" as="sourcePoint"/><mxPoint x="-258" y="-625.1399999999999" as="targetPoint"/></mxGeometry></mxCell><mxCell id="41" value="" style="endArrow=classic;html=1;rounded=0;dashed=1;exitX=1;exitY=0.5;exitDx=0;exitDy=0;entryX=0;entryY=0.5;entryDx=0;entryDy=0;strokeColor=#666666;fillColor=#f5f5f5;" parent="1" edge="1"><mxGeometry width="50" height="50" relative="1" as="geometry"><mxPoint x="-58.000000000000455" y="-625.1399999999999" as="sourcePoint"/><mxPoint x="-27" y="-625.1399999999999" as="targetPoint"/></mxGeometry></mxCell><mxCell id="42" value="&lt;div style=&quot;color: rgb(8, 8, 8);&quot;&gt;&lt;pre style=&quot;font-family: &amp;quot;JetBrains Mono&amp;quot;, monospace;&quot;&gt;&lt;pre style=&quot;font-family: &amp;quot;JetBrains Mono&amp;quot;, monospace;&quot;&gt;&lt;pre style=&quot;font-family: &amp;quot;JetBrains Mono&amp;quot;, monospace;&quot;&gt;&lt;pre style=&quot;font-family: &amp;quot;JetBrains Mono&amp;quot;, monospace;&quot;&gt;&lt;pre style=&quot;font-family: &amp;quot;JetBrains Mono&amp;quot;, monospace;&quot;&gt;&lt;pre style=&quot;font-family: &amp;quot;JetBrains Mono&amp;quot;, monospace;&quot;&gt;&lt;div style=&quot;&quot;&gt;&lt;pre style=&quot;font-family: &amp;quot;JetBrains Mono&amp;quot;, monospace;&quot;&gt;&lt;span style=&quot;color: rgb(0, 0, 0);&quot;&gt;&lt;i style=&quot;&quot;&gt;RedirectClientInterface&lt;/i&gt;&lt;/span&gt;&lt;/pre&gt;&lt;/div&gt;&lt;/pre&gt;&lt;/pre&gt;&lt;/pre&gt;&lt;/pre&gt;&lt;/pre&gt;&lt;/pre&gt;&lt;/div&gt;" style="rounded=1;whiteSpace=wrap;html=1;absoluteArcSize=1;arcSize=14;strokeWidth=2;fillColor=#dae8fc;strokeColor=#6c8ebf;" parent="1" vertex="1"><mxGeometry x="-479.5" y="-380" width="190" height="50" as="geometry"/></mxCell><mxCell id="43" value="&lt;div style=&quot;color: rgb(8, 8, 8);&quot;&gt;&lt;pre style=&quot;font-family: &amp;quot;JetBrains Mono&amp;quot;, monospace;&quot;&gt;&lt;pre style=&quot;font-family: &amp;quot;JetBrains Mono&amp;quot;, monospace;&quot;&gt;&lt;pre style=&quot;font-family: &amp;quot;JetBrains Mono&amp;quot;, monospace;&quot;&gt;&lt;pre style=&quot;font-family: &amp;quot;JetBrains Mono&amp;quot;, monospace;&quot;&gt;&lt;div style=&quot;&quot;&gt;&lt;pre style=&quot;font-family: &amp;quot;JetBrains Mono&amp;quot;, monospace;&quot;&gt;&lt;span style=&quot;color: rgb(0, 0, 0);&quot;&gt;Symfony/../RedirectClient&lt;/span&gt;&lt;/pre&gt;&lt;/div&gt;&lt;/pre&gt;&lt;/pre&gt;&lt;/pre&gt;&lt;/pre&gt;&lt;/div&gt;" style="rounded=1;whiteSpace=wrap;html=1;absoluteArcSize=1;arcSize=14;strokeWidth=2;strokeColor=#82b366;fillColor=#d5e8d4;" parent="1" vertex="1"><mxGeometry x="-259.5" y="-380" width="200" height="50" as="geometry"/></mxCell><mxCell id="44" value="70" style="text;html=1;strokeColor=none;fillColor=none;align=center;verticalAlign=middle;whiteSpace=wrap;rounded=0;fontStyle=2" parent="1" vertex="1"><mxGeometry x="-309.5" y="-350" width="20" height="20" as="geometry"/></mxCell><mxCell id="45" value="" style="edgeStyle=orthogonalEdgeStyle;rounded=0;orthogonalLoop=1;jettySize=auto;html=1;strokeColor=#000000;endArrow=classic;endFill=1;dashed=1;" parent="1" edge="1"><mxGeometry relative="1" as="geometry"><mxPoint x="-289.5" y="-355.1399999999999" as="sourcePoint"/><mxPoint x="-259.5" y="-355.1399999999999" as="targetPoint"/></mxGeometry></mxCell><mxCell id="46" value="&lt;div style=&quot;color: rgb(8, 8, 8);&quot;&gt;&lt;pre style=&quot;font-family: &amp;quot;JetBrains Mono&amp;quot;, monospace;&quot;&gt;&lt;pre style=&quot;font-family: &amp;quot;JetBrains Mono&amp;quot;, monospace;&quot;&gt;&lt;pre style=&quot;font-family: &amp;quot;JetBrains Mono&amp;quot;, monospace;&quot;&gt;&lt;pre style=&quot;font-family: &amp;quot;JetBrains Mono&amp;quot;, monospace;&quot;&gt;&lt;pre style=&quot;font-family: &amp;quot;JetBrains Mono&amp;quot;, monospace;&quot;&gt;&lt;pre style=&quot;font-family: &amp;quot;JetBrains Mono&amp;quot;, monospace;&quot;&gt;&lt;div style=&quot;&quot;&gt;&lt;pre style=&quot;font-family: &amp;quot;JetBrains Mono&amp;quot;, monospace;&quot;&gt;&lt;span style=&quot;color: rgb(0, 0, 0);&quot;&gt;&lt;i style=&quot;&quot;&gt;RenderFormInterface&lt;/i&gt;&lt;/span&gt;&lt;/pre&gt;&lt;/div&gt;&lt;/pre&gt;&lt;/pre&gt;&lt;/pre&gt;&lt;/pre&gt;&lt;/pre&gt;&lt;/pre&gt;&lt;/div&gt;" style="rounded=1;whiteSpace=wrap;html=1;absoluteArcSize=1;arcSize=14;strokeWidth=2;fillColor=#dae8fc;strokeColor=#6c8ebf;" parent="1" vertex="1"><mxGeometry x="-477.5" y="-290" width="190" height="50" as="geometry"/></mxCell><mxCell id="47" value="&lt;div style=&quot;color: rgb(8, 8, 8);&quot;&gt;&lt;pre style=&quot;font-family: &amp;quot;JetBrains Mono&amp;quot;, monospace;&quot;&gt;&lt;pre style=&quot;font-family: &amp;quot;JetBrains Mono&amp;quot;, monospace;&quot;&gt;&lt;pre style=&quot;font-family: &amp;quot;JetBrains Mono&amp;quot;, monospace;&quot;&gt;&lt;pre style=&quot;font-family: &amp;quot;JetBrains Mono&amp;quot;, monospace;&quot;&gt;&lt;div style=&quot;&quot;&gt;&lt;pre style=&quot;font-family: &amp;quot;JetBrains Mono&amp;quot;, monospace;&quot;&gt;&lt;span style=&quot;color: rgb(0, 0, 0);&quot;&gt;Symfony/../RenderForm&lt;/span&gt;&lt;/pre&gt;&lt;/div&gt;&lt;/pre&gt;&lt;/pre&gt;&lt;/pre&gt;&lt;/pre&gt;&lt;/div&gt;" style="rounded=1;whiteSpace=wrap;html=1;absoluteArcSize=1;arcSize=14;strokeWidth=2;strokeColor=#82b366;fillColor=#d5e8d4;" parent="1" vertex="1"><mxGeometry x="-257.5" y="-290" width="200" height="50" as="geometry"/></mxCell><mxCell id="48" value="&lt;div style=&quot;color: rgb(8, 8, 8);&quot;&gt;&lt;pre style=&quot;font-family: &amp;quot;JetBrains Mono&amp;quot;, monospace;&quot;&gt;&lt;pre style=&quot;font-family: &amp;quot;JetBrains Mono&amp;quot;, monospace;&quot;&gt;&lt;pre style=&quot;font-family: &amp;quot;JetBrains Mono&amp;quot;, monospace;&quot;&gt;&lt;pre style=&quot;font-family: &amp;quot;JetBrains Mono&amp;quot;, monospace;&quot;&gt;&lt;div style=&quot;&quot;&gt;&lt;pre style=&quot;font-family: &amp;quot;JetBrains Mono&amp;quot;, monospace;&quot;&gt;&lt;span style=&quot;color: rgb(0, 0, 0);&quot;&gt;Symfony/Twig&lt;/span&gt;&lt;/pre&gt;&lt;/div&gt;&lt;/pre&gt;&lt;/pre&gt;&lt;/pre&gt;&lt;/pre&gt;&lt;/div&gt;" style="shape=process;whiteSpace=wrap;html=1;backgroundOutline=1;fillColor=#ffe6cc;strokeColor=#d79b00;" parent="1" vertex="1"><mxGeometry x="-26.5" y="-287.5" width="190" height="45" as="geometry"/></mxCell><mxCell id="49" value="80" style="text;html=1;strokeColor=none;fillColor=none;align=center;verticalAlign=middle;whiteSpace=wrap;rounded=0;fontStyle=2" parent="1" vertex="1"><mxGeometry x="-307.5" y="-260" width="20" height="20" as="geometry"/></mxCell><mxCell id="50" value="" style="edgeStyle=orthogonalEdgeStyle;rounded=0;orthogonalLoop=1;jettySize=auto;html=1;strokeColor=#000000;endArrow=classic;endFill=1;dashed=1;" parent="1" edge="1"><mxGeometry relative="1" as="geometry"><mxPoint x="-287.5" y="-265.1399999999999" as="sourcePoint"/><mxPoint x="-257.5" y="-265.1399999999999" as="targetPoint"/></mxGeometry></mxCell><mxCell id="51" value="" style="endArrow=classic;html=1;rounded=0;dashed=1;exitX=1;exitY=0.5;exitDx=0;exitDy=0;entryX=0;entryY=0.5;entryDx=0;entryDy=0;strokeColor=#666666;fillColor=#f5f5f5;" parent="1" edge="1"><mxGeometry width="50" height="50" relative="1" as="geometry"><mxPoint x="-57.5" y="-265.1399999999999" as="sourcePoint"/><mxPoint x="-26.5" y="-265.1399999999999" as="targetPoint"/></mxGeometry></mxCell><mxCell id="52" value="&lt;div style=&quot;color: rgb(8, 8, 8);&quot;&gt;&lt;pre style=&quot;font-family: &amp;quot;JetBrains Mono&amp;quot;, monospace;&quot;&gt;&lt;div style=&quot;&quot;&gt;&lt;pre style=&quot;font-family: &amp;quot;JetBrains Mono&amp;quot;, monospace;&quot;&gt;&lt;span style=&quot;color: rgb(0, 0, 0);&quot;&gt;SaveObject&lt;/span&gt;&lt;/pre&gt;&lt;/div&gt;&lt;/pre&gt;&lt;/div&gt;" style="rounded=1;whiteSpace=wrap;html=1;absoluteArcSize=1;arcSize=14;strokeWidth=2;fillColor=#dae8fc;strokeColor=#6c8ebf;" parent="1" vertex="1"><mxGeometry x="-480" y="-470" width="190" height="50" as="geometry"/></mxCell><mxCell id="53" value="60" style="text;html=1;strokeColor=none;fillColor=none;align=center;verticalAlign=middle;whiteSpace=wrap;rounded=0;fontStyle=2" parent="1" vertex="1"><mxGeometry x="-310" y="-440" width="20" height="20" as="geometry"/></mxCell><mxCell id="54" value="&lt;div style=&quot;color: rgb(8, 8, 8);&quot;&gt;&lt;pre style=&quot;font-family: &amp;quot;JetBrains Mono&amp;quot;, monospace;&quot;&gt;&lt;span style=&quot;color: rgb(0, 0, 0);&quot;&gt;ProjectWriter&lt;/span&gt;&lt;/pre&gt;&lt;/div&gt;" style="shape=process;whiteSpace=wrap;html=1;backgroundOutline=1;fillColor=#ffe6cc;strokeColor=#d79b00;" parent="1" vertex="1"><mxGeometry x="-29" y="-467" width="190" height="45" as="geometry"/></mxCell><mxCell id="55" value="" style="endArrow=classic;html=1;rounded=0;dashed=1;exitX=1;exitY=0.5;exitDx=0;exitDy=0;entryX=0;entryY=0.5;entryDx=0;entryDy=0;strokeColor=#666666;fillColor=#f5f5f5;" parent="1" source="52" target="54" edge="1"><mxGeometry width="50" height="50" relative="1" as="geometry"><mxPoint x="230" y="-220" as="sourcePoint"/><mxPoint x="320" y="-300" as="targetPoint"/></mxGeometry></mxCell><mxCell id="56" value="" style="edgeStyle=orthogonalEdgeStyle;rounded=0;orthogonalLoop=1;jettySize=auto;html=1;strokeColor=#000000;exitX=0.5;exitY=1;exitDx=0;exitDy=0;" parent="1" edge="1"><mxGeometry relative="1" as="geometry"><mxPoint x="-385.2399999999998" y="-420.00000000000045" as="sourcePoint"/><mxPoint x="-385.2399999999998" y="-380.00000000000045" as="targetPoint"/></mxGeometry></mxCell><mxCell id="57" value="" style="edgeStyle=orthogonalEdgeStyle;rounded=0;orthogonalLoop=1;jettySize=auto;html=1;strokeColor=#000000;" parent="1" target="58" edge="1"><mxGeometry relative="1" as="geometry"><mxPoint x="-382.5" y="-600.0000000000005" as="sourcePoint"/></mxGeometry></mxCell><mxCell id="58" value="&lt;div style=&quot;color: rgb(8, 8, 8);&quot;&gt;&lt;pre style=&quot;font-family: &amp;quot;JetBrains Mono&amp;quot;, monospace;&quot;&gt;&lt;div style=&quot;&quot;&gt;&lt;pre style=&quot;font-family: &amp;quot;JetBrains Mono&amp;quot;, monospace;&quot;&gt;&lt;span style=&quot;color: rgb(0, 0, 0);&quot;&gt;&lt;i style=&quot;&quot;&gt;ObjectAccessControl&lt;/i&gt;&lt;/span&gt;&lt;/pre&gt;&lt;/div&gt;&lt;/pre&gt;&lt;/div&gt;" style="rounded=1;whiteSpace=wrap;html=1;absoluteArcSize=1;arcSize=14;strokeWidth=2;fillColor=#dae8fc;strokeColor=#6c8ebf;" parent="1" vertex="1"><mxGeometry x="-477.5" y="-560" width="190" height="50" as="geometry"/></mxCell><mxCell id="59" value="50" style="text;html=1;strokeColor=none;fillColor=none;align=center;verticalAlign=middle;whiteSpace=wrap;rounded=0;fontStyle=2" parent="1" vertex="1"><mxGeometry x="-307.5" y="-530" width="20" height="20" as="geometry"/></mxCell></root></mxGraphModel></diagram></mxfile>